<svg width="24" height="24" viewBox="0 0 24 24" fill="none" xmlns="http://www.w3.org/2000/svg">
<path d="M10.0364 4.819L19.1806 13.9646L9.90313 23.2434C9.4737 23.6728 8.90686 23.9374 8.30192 23.9909L8.07428 24H1.30596C0.984133 24 0.673631 23.8812 0.433992 23.6664C0.194353 23.4516 0.0424446 23.1559 0.00739419 22.8359L-0.000366211 22.6937V15.9254C-0.000217819 15.318 0.213605 14.7301 0.603648 14.2646L0.758855 14.0965L10.0364 4.819ZM14.0976 0.757753C14.5553 0.299958 15.1681 0.0304421 15.8149 0.00242545C16.4617 -0.0255912 17.0954 0.189929 17.5911 0.606426L17.7553 0.757753L23.2432 6.24561C23.7006 6.70329 23.9699 7.31579 23.9979 7.96227C24.0259 8.60874 23.8106 9.24224 23.3945 9.73777L23.2432 9.90333L21.0108 12.1357L11.8665 2.99015L14.0976 0.757753Z" fill="#26262E"/>
</svg>
