<svg xmlns="http://www.w3.org/2000/svg" width="30" height="30" viewBox="0 0 30 30" fill="none">
  <path d="M16.6298 14.3481L20.7039 18.4221C21.0026 18.7209 21.152 19.1012 21.152 19.5629C21.152 20.0246 21.0026 20.4049 20.7039 20.7036C20.4051 21.0024 20.0249 21.1518 19.5631 21.1518C19.1014 21.1518 18.7212 21.0024 18.4224 20.7036L13.8594 16.1407C13.6965 15.9777 13.5742 15.7941 13.4928 15.5898C13.4113 15.3867 13.3705 15.1765 13.3705 14.9592V8.4814C13.3705 8.01967 13.527 7.63236 13.8399 7.31947C14.1517 7.00767 14.5384 6.85177 15.0002 6.85177C15.4619 6.85177 15.8492 7.00767 16.1621 7.31947C16.4739 7.63236 16.6298 8.01967 16.6298 8.4814V14.3481ZM15.0002 29.6666C11.7137 29.6666 8.76683 28.6953 6.15942 26.7528C3.55201 24.8114 1.80016 22.2789 0.903866 19.1555C0.768064 18.6666 0.815866 18.2049 1.04727 17.7703C1.27759 17.3357 1.6372 17.0641 2.12609 16.9555C2.58782 16.8468 3.00229 16.9484 3.3695 17.2602C3.73562 17.5731 3.98658 17.9604 4.12238 18.4221C4.82856 20.8123 6.19364 22.7407 8.21764 24.2073C10.2406 25.674 12.5014 26.4073 15.0002 26.4073C18.1779 26.4073 20.8733 25.3003 23.0864 23.0861C25.3005 20.8731 26.4076 18.1777 26.4076 14.9999C26.4076 11.8221 25.3005 9.12619 23.0864 6.91207C20.8733 4.69903 18.1779 3.59251 15.0002 3.59251C13.1261 3.59251 11.3742 4.02708 9.74461 4.89621C8.11498 5.76535 6.74337 6.96041 5.62979 8.4814H8.48164C8.94337 8.4814 9.33068 8.6373 9.64357 8.9491C9.95537 9.26199 10.1113 9.6493 10.1113 10.111C10.1113 10.5728 9.95537 10.9595 9.64357 11.2713C9.33068 11.5842 8.94337 11.7407 8.48164 11.7407H1.96313C1.5014 11.7407 1.11463 11.5842 0.80283 11.2713C0.489941 10.9595 0.333496 10.5728 0.333496 10.111V3.59251C0.333496 3.13078 0.489941 2.74347 0.80283 2.43059C1.11463 2.11878 1.5014 1.96288 1.96313 1.96288C2.42485 1.96288 2.81216 2.11878 3.12505 2.43059C3.43685 2.74347 3.59276 3.13078 3.59276 3.59251V5.79251C4.97794 4.05424 6.66895 2.70979 8.66579 1.75918C10.6615 0.808561 12.773 0.333252 15.0002 0.333252C17.0372 0.333252 18.9455 0.720017 20.725 1.49355C22.5035 2.26817 24.0517 3.31384 25.3695 4.63059C26.6862 5.94841 27.7319 7.49656 28.5065 9.27503C29.2801 11.0546 29.6668 12.9629 29.6668 14.9999C29.6668 17.037 29.2801 18.9447 28.5065 20.7232C27.7319 22.5027 26.6862 24.0509 25.3695 25.3676C24.0517 26.6854 22.5035 27.7317 20.725 28.5063C18.9455 29.2798 17.0372 29.6666 15.0002 29.6666Z" fill="#26262E"/>
</svg>