<svg width="105" height="105" viewBox="0 0 105 105" fill="none" xmlns="http://www.w3.org/2000/svg">
<path d="M62.4447 52.4961C62.4447 58.6419 58.5123 64.7994 51.3187 64.7994C44.129 64.7994 39.8042 58.6419 39.8042 52.4961C39.8042 46.3542 44.129 40.1967 51.3187 40.1967C58.5123 40.1967 62.4447 46.3542 62.4447 52.4961ZM96.9961 35.813V97H52.5H35.813C20.4525 96.9961 8 84.5436 8 69.187V8H52.5H69.187C84.5436 8 96.9961 20.4525 96.9961 35.813ZM73.9631 30.248C70.3212 30.248 67.0913 31.9944 65.0623 34.6945C61.3419 31.9042 56.7188 30.248 51.7112 30.248C39.4235 30.248 29.4631 40.2084 29.4631 52.4961C29.4631 64.7837 39.4235 74.748 51.7112 74.748C56.7188 74.748 61.3419 73.0919 65.0623 70.2976C65.3763 70.7176 65.7217 71.1139 66.0945 71.4868C68.1078 73.504 70.8902 74.748 73.9631 74.748V30.248Z" fill="#26262E"/>
</svg>
