<svg width="168" height="122" viewBox="0 0 168 122" fill="none" xmlns="http://www.w3.org/2000/svg">
<path d="M8.75475 37.16C7.48542 37.16 6.44008 36.992 5.61875 36.656C4.81608 36.32 4.18142 35.9093 3.71475 35.424C3.26675 34.9573 2.94008 34.4813 2.73475 33.996C2.54808 33.5293 2.44542 33.156 2.42675 32.876C2.40808 32.6893 2.46408 32.5307 2.59475 32.4C2.74408 32.2693 2.90275 32.204 3.07075 32.204H4.41475C4.58275 32.204 4.72275 32.2413 4.83475 32.316C4.94675 32.3907 5.04008 32.5493 5.11475 32.792C5.22675 33.072 5.39475 33.38 5.61875 33.716C5.84275 34.0707 6.18808 34.3693 6.65475 34.612C7.12142 34.8733 7.77475 35.004 8.61475 35.004C9.49208 35.004 10.2294 34.8827 10.8268 34.64C11.4241 34.3973 11.8721 33.9867 12.1708 33.408C12.4881 32.8293 12.6468 32.0267 12.6468 31V29.096C12.1988 29.6747 11.6108 30.16 10.8828 30.552C10.1548 30.9253 9.24008 31.112 8.13875 31.112C7.09342 31.112 6.19742 30.9347 5.45075 30.58C4.70408 30.2067 4.08808 29.712 3.60275 29.096C3.13608 28.4613 2.78142 27.7427 2.53875 26.94C2.31475 26.1373 2.18408 25.2973 2.14675 24.42C2.12808 23.8973 2.12808 23.384 2.14675 22.88C2.18408 22.0027 2.31475 21.1627 2.53875 20.36C2.78142 19.5573 3.13608 18.8387 3.60275 18.204C4.08808 17.5693 4.70408 17.0747 5.45075 16.72C6.19742 16.3467 7.09342 16.16 8.13875 16.16C9.25875 16.16 10.1828 16.3653 10.9108 16.776C11.6574 17.1867 12.2641 17.7 12.7308 18.316V17.112C12.7308 16.9253 12.7868 16.7667 12.8988 16.636C13.0294 16.5053 13.1881 16.44 13.3748 16.44H14.6628C14.8494 16.44 15.0081 16.5053 15.1388 16.636C15.2694 16.7667 15.3348 16.9253 15.3348 17.112V30.692C15.3348 31.9427 15.1201 33.0533 14.6908 34.024C14.2801 34.9947 13.5894 35.76 12.6188 36.32C11.6668 36.88 10.3788 37.16 8.75475 37.16ZM8.69875 28.872C9.63208 28.872 10.3788 28.6573 10.9388 28.228C11.5174 27.7987 11.9374 27.2573 12.1988 26.604C12.4788 25.9507 12.6281 25.288 12.6468 24.616C12.6654 24.3547 12.6748 24.0373 12.6748 23.664C12.6748 23.272 12.6654 22.9453 12.6468 22.684C12.6281 22.012 12.4788 21.3493 12.1988 20.696C11.9374 20.0427 11.5174 19.5013 10.9388 19.072C10.3788 18.6427 9.63208 18.428 8.69875 18.428C7.76542 18.428 7.01875 18.6427 6.45875 19.072C5.89875 19.4827 5.49742 20.0333 5.25475 20.724C5.01208 21.396 4.87208 22.124 4.83475 22.908C4.81608 23.3933 4.81608 23.888 4.83475 24.392C4.87208 25.176 5.01208 25.9133 5.25475 26.604C5.49742 27.276 5.89875 27.8267 6.45875 28.256C7.01875 28.6667 7.76542 28.872 8.69875 28.872ZM26.4618 31.28C25.0431 31.28 23.8578 31.0093 22.9058 30.468C21.9538 29.9267 21.2258 29.18 20.7218 28.228C20.2178 27.2573 19.9378 26.156 19.8818 24.924C19.8631 24.6067 19.8538 24.2053 19.8538 23.72C19.8538 23.216 19.8631 22.8147 19.8818 22.516C19.9378 21.2653 20.2178 20.164 20.7218 19.212C21.2444 18.26 21.9818 17.5133 22.9338 16.972C23.8858 16.4307 25.0618 16.16 26.4618 16.16C27.8618 16.16 29.0378 16.4307 29.9898 16.972C30.9418 17.5133 31.6698 18.26 32.1738 19.212C32.6964 20.164 32.9858 21.2653 33.0418 22.516C33.0604 22.8147 33.0698 23.216 33.0698 23.72C33.0698 24.2053 33.0604 24.6067 33.0418 24.924C32.9858 26.156 32.7058 27.2573 32.2018 28.228C31.6978 29.18 30.9698 29.9267 30.0178 30.468C29.0658 31.0093 27.8804 31.28 26.4618 31.28ZM26.4618 29.124C27.6191 29.124 28.5431 28.76 29.2338 28.032C29.9244 27.2853 30.2978 26.2027 30.3538 24.784C30.3724 24.504 30.3818 24.1493 30.3818 23.72C30.3818 23.2907 30.3724 22.936 30.3538 22.656C30.2978 21.2373 29.9244 20.164 29.2338 19.436C28.5431 18.6893 27.6191 18.316 26.4618 18.316C25.3044 18.316 24.3711 18.6893 23.6618 19.436C22.9711 20.164 22.6071 21.2373 22.5698 22.656C22.5511 22.936 22.5418 23.2907 22.5418 23.72C22.5418 24.1493 22.5511 24.504 22.5698 24.784C22.6071 26.2027 22.9711 27.2853 23.6618 28.032C24.3711 28.76 25.3044 29.124 26.4618 29.124ZM43.5399 31.28C42.1212 31.28 40.9359 31.0093 39.9839 30.468C39.0319 29.9267 38.3039 29.18 37.7999 28.228C37.2959 27.2573 37.0159 26.156 36.9599 24.924C36.9412 24.6067 36.9319 24.2053 36.9319 23.72C36.9319 23.216 36.9412 22.8147 36.9599 22.516C37.0159 21.2653 37.2959 20.164 37.7999 19.212C38.3226 18.26 39.0599 17.5133 40.0119 16.972C40.9639 16.4307 42.1399 16.16 43.5399 16.16C44.9399 16.16 46.1159 16.4307 47.0679 16.972C48.0199 17.5133 48.7479 18.26 49.2519 19.212C49.7746 20.164 50.0639 21.2653 50.1199 22.516C50.1386 22.8147 50.1479 23.216 50.1479 23.72C50.1479 24.2053 50.1386 24.6067 50.1199 24.924C50.0639 26.156 49.7839 27.2573 49.2799 28.228C48.7759 29.18 48.0479 29.9267 47.0959 30.468C46.1439 31.0093 44.9586 31.28 43.5399 31.28ZM43.5399 29.124C44.6972 29.124 45.6212 28.76 46.3119 28.032C47.0026 27.2853 47.3759 26.2027 47.4319 24.784C47.4506 24.504 47.4599 24.1493 47.4599 23.72C47.4599 23.2907 47.4506 22.936 47.4319 22.656C47.3759 21.2373 47.0026 20.164 46.3119 19.436C45.6212 18.6893 44.6972 18.316 43.5399 18.316C42.3826 18.316 41.4492 18.6893 40.7399 19.436C40.0492 20.164 39.6852 21.2373 39.6479 22.656C39.6292 22.936 39.6199 23.2907 39.6199 23.72C39.6199 24.1493 39.6292 24.504 39.6479 24.784C39.6852 26.2027 40.0492 27.2853 40.7399 28.032C41.4492 28.76 42.3826 29.124 43.5399 29.124ZM60.618 37.16C59.3487 37.16 58.3034 36.992 57.482 36.656C56.6794 36.32 56.0447 35.9093 55.578 35.424C55.13 34.9573 54.8034 34.4813 54.598 33.996C54.4114 33.5293 54.3087 33.156 54.29 32.876C54.2714 32.6893 54.3274 32.5307 54.458 32.4C54.6074 32.2693 54.766 32.204 54.934 32.204H56.278C56.446 32.204 56.586 32.2413 56.698 32.316C56.81 32.3907 56.9034 32.5493 56.978 32.792C57.09 33.072 57.258 33.38 57.482 33.716C57.706 34.0707 58.0514 34.3693 58.518 34.612C58.9847 34.8733 59.638 35.004 60.478 35.004C61.3554 35.004 62.0927 34.8827 62.69 34.64C63.2874 34.3973 63.7354 33.9867 64.034 33.408C64.3514 32.8293 64.51 32.0267 64.51 31V29.096C64.062 29.6747 63.474 30.16 62.746 30.552C62.018 30.9253 61.1034 31.112 60.002 31.112C58.9567 31.112 58.0607 30.9347 57.314 30.58C56.5674 30.2067 55.9514 29.712 55.466 29.096C54.9994 28.4613 54.6447 27.7427 54.402 26.94C54.178 26.1373 54.0474 25.2973 54.01 24.42C53.9914 23.8973 53.9914 23.384 54.01 22.88C54.0474 22.0027 54.178 21.1627 54.402 20.36C54.6447 19.5573 54.9994 18.8387 55.466 18.204C55.9514 17.5693 56.5674 17.0747 57.314 16.72C58.0607 16.3467 58.9567 16.16 60.002 16.16C61.122 16.16 62.046 16.3653 62.774 16.776C63.5207 17.1867 64.1274 17.7 64.594 18.316V17.112C64.594 16.9253 64.65 16.7667 64.762 16.636C64.8927 16.5053 65.0514 16.44 65.238 16.44H66.526C66.7127 16.44 66.8714 16.5053 67.002 16.636C67.1327 16.7667 67.198 16.9253 67.198 17.112V30.692C67.198 31.9427 66.9834 33.0533 66.554 34.024C66.1434 34.9947 65.4527 35.76 64.482 36.32C63.53 36.88 62.242 37.16 60.618 37.16ZM60.562 28.872C61.4954 28.872 62.242 28.6573 62.802 28.228C63.3807 27.7987 63.8007 27.2573 64.062 26.604C64.342 25.9507 64.4914 25.288 64.51 24.616C64.5287 24.3547 64.538 24.0373 64.538 23.664C64.538 23.272 64.5287 22.9453 64.51 22.684C64.4914 22.012 64.342 21.3493 64.062 20.696C63.8007 20.0427 63.3807 19.5013 62.802 19.072C62.242 18.6427 61.4954 18.428 60.562 18.428C59.6287 18.428 58.882 18.6427 58.322 19.072C57.762 19.4827 57.3607 20.0333 57.118 20.724C56.8754 21.396 56.7354 22.124 56.698 22.908C56.6794 23.3933 56.6794 23.888 56.698 24.392C56.7354 25.176 56.8754 25.9133 57.118 26.604C57.3607 27.276 57.762 27.8267 58.322 28.256C58.882 28.6667 59.6287 28.872 60.562 28.872ZM73.0331 31C72.8464 31 72.6877 30.944 72.5571 30.832C72.4451 30.7013 72.3891 30.5427 72.3891 30.356V11.764C72.3891 11.5773 72.4451 11.428 72.5571 11.316C72.6877 11.1853 72.8464 11.12 73.0331 11.12H74.3491C74.5544 11.12 74.7131 11.1853 74.8251 11.316C74.9371 11.428 74.9931 11.5773 74.9931 11.764V30.356C74.9931 30.5427 74.9371 30.7013 74.8251 30.832C74.7131 30.944 74.5544 31 74.3491 31H73.0331ZM85.9937 31.28C84.0523 31.28 82.5123 30.692 81.3737 29.516C80.235 28.3213 79.6097 26.6973 79.4977 24.644C79.479 24.4013 79.4697 24.0933 79.4697 23.72C79.4697 23.328 79.479 23.0107 79.4977 22.768C79.5723 21.4427 79.8803 20.2853 80.4217 19.296C80.963 18.288 81.7003 17.5133 82.6337 16.972C83.5857 16.4307 84.6963 16.16 85.9657 16.16C87.3843 16.16 88.5697 16.4587 89.5217 17.056C90.4923 17.6533 91.2297 18.5027 91.7337 19.604C92.2377 20.7053 92.4897 21.9933 92.4897 23.468V23.944C92.4897 24.1493 92.4243 24.308 92.2937 24.42C92.1817 24.532 92.0323 24.588 91.8457 24.588H82.1577C82.1577 24.6067 82.1577 24.644 82.1577 24.7C82.1577 24.756 82.1577 24.8027 82.1577 24.84C82.195 25.6053 82.363 26.324 82.6617 26.996C82.9603 27.6493 83.3897 28.1813 83.9497 28.592C84.5283 29.0027 85.2003 29.208 85.9657 29.208C86.6377 29.208 87.1977 29.1053 87.6457 28.9C88.0937 28.6947 88.4577 28.4707 88.7377 28.228C89.0177 27.9667 89.2043 27.7613 89.2977 27.612C89.4657 27.388 89.5963 27.2573 89.6897 27.22C89.783 27.164 89.9323 27.136 90.1377 27.136H91.5097C91.6777 27.136 91.8177 27.192 91.9297 27.304C92.0603 27.3973 92.1163 27.5373 92.0977 27.724C92.079 28.004 91.9297 28.3493 91.6497 28.76C91.3697 29.152 90.9683 29.544 90.4457 29.936C89.9417 30.328 89.307 30.6547 88.5417 30.916C87.795 31.1587 86.9457 31.28 85.9937 31.28ZM82.1577 22.656H89.8297V22.572C89.8297 21.732 89.671 20.9853 89.3537 20.332C89.055 19.6787 88.6163 19.1653 88.0377 18.792C87.459 18.4 86.7683 18.204 85.9657 18.204C85.163 18.204 84.4723 18.4 83.8937 18.792C83.3337 19.1653 82.9043 19.6787 82.6057 20.332C82.307 20.9853 82.1577 21.732 82.1577 22.572V22.656ZM97.3416 23.776C97.155 23.776 96.9963 23.72 96.8656 23.608C96.7536 23.4773 96.6976 23.3187 96.6976 23.132V22.068C96.6976 21.8813 96.7536 21.732 96.8656 21.62C96.9963 21.4893 97.155 21.424 97.3416 21.424H105.742C105.947 21.424 106.106 21.4893 106.218 21.62C106.33 21.732 106.386 21.8813 106.386 22.068V23.132C106.386 23.3187 106.33 23.4773 106.218 23.608C106.106 23.72 105.947 23.776 105.742 23.776H97.3416ZM112.072 31C111.885 31 111.727 30.944 111.596 30.832C111.484 30.7013 111.428 30.5427 111.428 30.356V11.764C111.428 11.5773 111.484 11.428 111.596 11.316C111.727 11.1853 111.885 11.12 112.072 11.12H113.388C113.593 11.12 113.752 11.1853 113.864 11.316C113.976 11.428 114.032 11.5773 114.032 11.764V30.356C114.032 30.5427 113.976 30.7013 113.864 30.832C113.752 30.944 113.593 31 113.388 31H112.072ZM125.173 31.28C123.754 31.28 122.569 31.0093 121.617 30.468C120.665 29.9267 119.937 29.18 119.433 28.228C118.929 27.2573 118.649 26.156 118.593 24.924C118.574 24.6067 118.565 24.2053 118.565 23.72C118.565 23.216 118.574 22.8147 118.593 22.516C118.649 21.2653 118.929 20.164 119.433 19.212C119.955 18.26 120.693 17.5133 121.645 16.972C122.597 16.4307 123.773 16.16 125.173 16.16C126.573 16.16 127.749 16.4307 128.701 16.972C129.653 17.5133 130.381 18.26 130.885 19.212C131.407 20.164 131.697 21.2653 131.753 22.516C131.771 22.8147 131.781 23.216 131.781 23.72C131.781 24.2053 131.771 24.6067 131.753 24.924C131.697 26.156 131.417 27.2573 130.913 28.228C130.409 29.18 129.681 29.9267 128.729 30.468C127.777 31.0093 126.591 31.28 125.173 31.28ZM125.173 29.124C126.33 29.124 127.254 28.76 127.945 28.032C128.635 27.2853 129.009 26.2027 129.065 24.784C129.083 24.504 129.093 24.1493 129.093 23.72C129.093 23.2907 129.083 22.936 129.065 22.656C129.009 21.2373 128.635 20.164 127.945 19.436C127.254 18.6893 126.33 18.316 125.173 18.316C124.015 18.316 123.082 18.6893 122.373 19.436C121.682 20.164 121.318 21.2373 121.281 22.656C121.262 22.936 121.253 23.2907 121.253 23.72C121.253 24.1493 121.262 24.504 121.281 24.784C121.318 26.2027 121.682 27.2853 122.373 28.032C123.082 28.76 124.015 29.124 125.173 29.124ZM142.251 37.16C140.982 37.16 139.936 36.992 139.115 36.656C138.312 36.32 137.678 35.9093 137.211 35.424C136.763 34.9573 136.436 34.4813 136.231 33.996C136.044 33.5293 135.942 33.156 135.923 32.876C135.904 32.6893 135.96 32.5307 136.091 32.4C136.24 32.2693 136.399 32.204 136.567 32.204H137.911C138.079 32.204 138.219 32.2413 138.331 32.316C138.443 32.3907 138.536 32.5493 138.611 32.792C138.723 33.072 138.891 33.38 139.115 33.716C139.339 34.0707 139.684 34.3693 140.151 34.612C140.618 34.8733 141.271 35.004 142.111 35.004C142.988 35.004 143.726 34.8827 144.323 34.64C144.92 34.3973 145.368 33.9867 145.667 33.408C145.984 32.8293 146.143 32.0267 146.143 31V29.096C145.695 29.6747 145.107 30.16 144.379 30.552C143.651 30.9253 142.736 31.112 141.635 31.112C140.59 31.112 139.694 30.9347 138.947 30.58C138.2 30.2067 137.584 29.712 137.099 29.096C136.632 28.4613 136.278 27.7427 136.035 26.94C135.811 26.1373 135.68 25.2973 135.643 24.42C135.624 23.8973 135.624 23.384 135.643 22.88C135.68 22.0027 135.811 21.1627 136.035 20.36C136.278 19.5573 136.632 18.8387 137.099 18.204C137.584 17.5693 138.2 17.0747 138.947 16.72C139.694 16.3467 140.59 16.16 141.635 16.16C142.755 16.16 143.679 16.3653 144.407 16.776C145.154 17.1867 145.76 17.7 146.227 18.316V17.112C146.227 16.9253 146.283 16.7667 146.395 16.636C146.526 16.5053 146.684 16.44 146.871 16.44H148.159C148.346 16.44 148.504 16.5053 148.635 16.636C148.766 16.7667 148.831 16.9253 148.831 17.112V30.692C148.831 31.9427 148.616 33.0533 148.187 34.024C147.776 34.9947 147.086 35.76 146.115 36.32C145.163 36.88 143.875 37.16 142.251 37.16ZM142.195 28.872C143.128 28.872 143.875 28.6573 144.435 28.228C145.014 27.7987 145.434 27.2573 145.695 26.604C145.975 25.9507 146.124 25.288 146.143 24.616C146.162 24.3547 146.171 24.0373 146.171 23.664C146.171 23.272 146.162 22.9453 146.143 22.684C146.124 22.012 145.975 21.3493 145.695 20.696C145.434 20.0427 145.014 19.5013 144.435 19.072C143.875 18.6427 143.128 18.428 142.195 18.428C141.262 18.428 140.515 18.6427 139.955 19.072C139.395 19.4827 138.994 20.0333 138.751 20.724C138.508 21.396 138.368 22.124 138.331 22.908C138.312 23.3933 138.312 23.888 138.331 24.392C138.368 25.176 138.508 25.9133 138.751 26.604C138.994 27.276 139.395 27.8267 139.955 28.256C140.515 28.6667 141.262 28.872 142.195 28.872ZM159.958 31.28C158.539 31.28 157.354 31.0093 156.402 30.468C155.45 29.9267 154.722 29.18 154.218 28.228C153.714 27.2573 153.434 26.156 153.378 24.924C153.359 24.6067 153.35 24.2053 153.35 23.72C153.35 23.216 153.359 22.8147 153.378 22.516C153.434 21.2653 153.714 20.164 154.218 19.212C154.741 18.26 155.478 17.5133 156.43 16.972C157.382 16.4307 158.558 16.16 159.958 16.16C161.358 16.16 162.534 16.4307 163.486 16.972C164.438 17.5133 165.166 18.26 165.67 19.212C166.193 20.164 166.482 21.2653 166.538 22.516C166.557 22.8147 166.566 23.216 166.566 23.72C166.566 24.2053 166.557 24.6067 166.538 24.924C166.482 26.156 166.202 27.2573 165.698 28.228C165.194 29.18 164.466 29.9267 163.514 30.468C162.562 31.0093 161.377 31.28 159.958 31.28ZM159.958 29.124C161.115 29.124 162.039 28.76 162.73 28.032C163.421 27.2853 163.794 26.2027 163.85 24.784C163.869 24.504 163.878 24.1493 163.878 23.72C163.878 23.2907 163.869 22.936 163.85 22.656C163.794 21.2373 163.421 20.164 162.73 19.436C162.039 18.6893 161.115 18.316 159.958 18.316C158.801 18.316 157.867 18.6893 157.158 19.436C156.467 20.164 156.103 21.2373 156.066 22.656C156.047 22.936 156.038 23.2907 156.038 23.72C156.038 24.1493 156.047 24.504 156.066 24.784C156.103 26.2027 156.467 27.2853 157.158 28.032C157.867 28.76 158.801 29.124 159.958 29.124Z" fill="#26262E"/>
<path d="M164.173 94.062C164.436 95.4678 164.579 96.9376 164.579 98.4715C164.579 110.469 156.549 119 144.421 119C141.663 119.001 138.932 118.458 136.384 117.403C133.836 116.348 131.52 114.801 129.57 112.851C127.62 110.901 126.073 108.586 125.018 106.037C123.963 103.489 123.421 100.758 123.421 98C123.421 95.242 123.963 92.5109 125.018 89.9627C126.073 87.4144 127.62 85.0991 129.57 83.1489C131.52 81.1987 133.836 79.6519 136.384 78.5968C138.932 77.5418 141.663 76.9992 144.421 77C150.092 77 154.83 79.0863 158.465 82.474L152.545 88.3938V88.3789C150.341 86.2798 147.545 85.2025 144.421 85.2025C137.492 85.2025 131.861 91.0562 131.861 97.9872C131.861 104.916 137.492 110.783 144.421 110.783C150.708 110.783 154.988 107.188 155.866 102.252H144.421V94.062H164.176H164.173Z" fill="#26262E"/>
</svg>
