<svg width="16" height="17" viewBox="0 0 16 17" fill="none" xmlns="http://www.w3.org/2000/svg">
<path d="M14.7244 7.0207C14.8119 7.48931 14.8595 7.97925 14.8595 8.49053C14.8595 12.4897 12.1829 15.3334 8.14038 15.3334C7.22105 15.3337 6.31067 15.1528 5.46127 14.8011C4.61186 14.4494 3.84007 13.9338 3.19001 13.2837C2.53994 12.6337 2.02434 11.8619 1.67265 11.0125C1.32097 10.1631 1.1401 9.25271 1.14038 8.33337C1.1401 7.41404 1.32097 6.50366 1.67265 5.65426C2.02434 4.80485 2.53994 4.03307 3.19001 3.383C3.84007 2.73294 4.61186 2.21733 5.46127 1.86565C6.31067 1.51396 7.22105 1.33309 8.14038 1.33337C10.0305 1.33337 11.6098 2.02882 12.8215 3.15804L10.8482 5.13132V5.12634C10.1137 4.42663 9.18142 4.06753 8.14038 4.06753C5.83075 4.06753 3.95347 6.01877 3.95347 8.32911C3.95347 10.6387 5.83075 12.5942 8.14038 12.5942C10.236 12.5942 11.6624 11.3961 11.9554 9.75058H8.14038V7.0207H14.7251H14.7244Z" fill="#26262E"/>
</svg>
